<?xml version="1.0" standalone="no"?><!DOCTYPE svg PUBLIC "-//W3C//DTD SVG 1.1//EN" "http://www.w3.org/Graphics/SVG/1.1/DTD/svg11.dtd"><svg t="1553494656455" class="icon" style="" viewBox="0 0 1024 1024" version="1.1" xmlns="http://www.w3.org/2000/svg" p-id="2647" xmlns:xlink="http://www.w3.org/1999/xlink" width="200" height="200"><defs><style type="text/css"></style></defs><path d="M473.5 15.373c247.682 0 448.5 200.818 448.5 448.5 0 247.683-200.818 448.5-448.5 448.5S25 711.556 25 463.873s200.818-448.5 448.5-448.5zM137.125 463.872c0 185.815 150.613 336.374 336.375 336.374s336.374-150.559 336.374-336.374c0-185.762-150.612-336.375-336.374-336.375S137.125 278.11 137.125 463.872z m587.042 269.472c21.872-21.899 57.375-21.899 79.275 0L985.234 915.11c21.9 21.898 21.9 57.376 0 79.275-21.898 21.898-57.375 21.898-79.275 0L724.167 812.619c-21.9-21.899-21.9-57.43 0-79.275z" p-id="2648" data-spm-anchor-id="a313x.7781069.0.i0" class="selected" fill="#333333"></path></svg>